<svg width="33" height="32" viewBox="0 0 33 32" xmlns="http://www.w3.org/2000/svg">
<path d="M28.4998 18.6667C28.1462 18.6667 27.8071 18.8071 27.557 19.0572C27.307 19.3072 27.1665 19.6464 27.1665 20V25.3333C27.1665 25.6869 27.026 26.0261 26.776 26.2761C26.5259 26.5262 26.1868 26.6667 25.8332 26.6667H7.1665C6.81288 26.6667 6.47374 26.5262 6.2237 26.2761C5.97365 26.0261 5.83317 25.6869 5.83317 25.3333V20C5.83317 19.6464 5.69269 19.3072 5.44265 19.0572C5.1926 18.8071 4.85346 18.6667 4.49984 18.6667C4.14622 18.6667 3.80708 18.8071 3.55703 19.0572C3.30698 19.3072 3.1665 19.6464 3.1665 20V25.3333C3.1665 26.3942 3.58793 27.4116 4.33808 28.1618C5.08822 28.9119 6.10564 29.3333 7.1665 29.3333H25.8332C26.894 29.3333 27.9115 28.9119 28.6616 28.1618C29.4117 27.4116 29.8332 26.3942 29.8332 25.3333V20C29.8332 19.6464 29.6927 19.3072 29.4426 19.0572C29.1926 18.8071 28.8535 18.6667 28.4998 18.6667ZM15.5532 20.9467C15.68 21.068 15.8295 21.1632 15.9932 21.2267C16.1528 21.2972 16.3253 21.3336 16.4998 21.3336C16.6743 21.3336 16.8469 21.2972 17.0065 21.2267C17.1702 21.1632 17.3197 21.068 17.4465 20.9467L22.7798 15.6133C23.0309 15.3623 23.172 15.0217 23.172 14.6667C23.172 14.3116 23.0309 13.9711 22.7798 13.72C22.5288 13.4689 22.1882 13.3279 21.8332 13.3279C21.4781 13.3279 21.1376 13.4689 20.8865 13.72L17.8332 16.7867V3.99999C17.8332 3.64637 17.6927 3.30723 17.4426 3.05718C17.1926 2.80713 16.8535 2.66666 16.4998 2.66666C16.1462 2.66666 15.8071 2.80713 15.557 3.05718C15.307 3.30723 15.1665 3.64637 15.1665 3.99999V16.7867L12.1132 13.72C11.9889 13.5957 11.8413 13.4971 11.6788 13.4298C11.5164 13.3625 11.3423 13.3279 11.1665 13.3279C10.9907 13.3279 10.8166 13.3625 10.6542 13.4298C10.4917 13.4971 10.3442 13.5957 10.2198 13.72C10.0955 13.8443 9.99691 13.9919 9.92962 14.1543C9.86234 14.3168 9.82771 14.4908 9.82771 14.6667C9.82771 14.8425 9.86234 15.0166 9.92962 15.179C9.99691 15.3414 10.0955 15.489 10.2198 15.6133L15.5532 20.9467Z"/>
</svg>
