<?xml version="1.0" encoding="utf-8"?><svg xmlns="http://www.w3.org/2000/svg" xmlns:xlink="http://www.w3.org/1999/xlink"><symbol viewBox="0 0 33 32" id="download" xmlns="http://www.w3.org/2000/svg"><path d="M28.5 18.667A1.333 1.333 0 0027.166 20v5.333a1.333 1.333 0 01-1.333 1.334H7.167a1.333 1.333 0 01-1.334-1.334V20a1.333 1.333 0 10-2.667 0v5.333a4 4 0 004 4h18.667a4 4 0 004-4V20a1.333 1.333 0 00-1.333-1.333zm-12.947 2.28c.127.121.276.216.44.28a1.254 1.254 0 001.013 0c.164-.064.314-.159.44-.28l5.334-5.334a1.339 1.339 0 10-1.893-1.893l-3.054 3.067V4a1.333 1.333 0 00-2.666 0v12.787l-3.054-3.067a1.339 1.339 0 00-1.893 1.893l5.333 5.334z"/></symbol><symbol viewBox="0 0 24 24" id="map" xmlns="http://www.w3.org/2000/svg"><path clip-rule="evenodd" d="M12 2a8 8 0 00-8 8c0 3.098 2.016 6.104 4.226 8.437A29.419 29.419 0 0012 21.773a29.412 29.412 0 003.774-3.335C17.984 16.103 20 13.097 20 10a8 8 0 00-8-8zm0 21l-.555.832-.003-.002-.007-.005-.023-.015a28.518 28.518 0 01-1.441-1.074 31.428 31.428 0 01-3.197-2.923C4.484 17.396 2 13.902 2 10a10 10 0 0120 0c0 3.902-2.484 7.396-4.774 9.813a31.433 31.433 0 01-4.254 3.726 18.887 18.887 0 01-.384.27l-.023.016-.007.005-.002.001s-.001.001-.556-.831zm0 0l.555.832a1 1 0 01-1.11 0L12 23z"/><path clip-rule="evenodd" d="M12 8a2 2 0 100 4 2 2 0 000-4zm-4 2a4 4 0 118 0 4 4 0 01-8 0z"/></symbol><symbol fill="none" viewBox="0 0 47 47" id="play" xmlns="http://www.w3.org/2000/svg"><circle cx="23.5" cy="23.5" r="22" fill="#fff" stroke="#190202" stroke-width="3"/><path d="M34.586 23.473L16.968 33.977l.115-21.197 17.503 10.693z" fill="#fff" stroke="#190202" stroke-width="3" stroke-linejoin="round"/></symbol></svg>