<svg width="33" height="32" xmlns="http://www.w3.org/2000/svg"><path d="M28.5 18.667A1.333 1.333 0 0027.166 20v5.333a1.333 1.333 0 01-1.333 1.334H7.167a1.333 1.333 0 01-1.334-1.334V20a1.333 1.333 0 10-2.667 0v5.333a4 4 0 004 4h18.667a4 4 0 004-4V20a1.333 1.333 0 00-1.333-1.333zm-12.947 2.28c.127.121.276.216.44.28a1.254 1.254 0 001.013 0c.164-.064.314-.159.44-.28l5.334-5.334a1.339 1.339 0 10-1.893-1.893l-3.054 3.067V4a1.333 1.333 0 00-2.666 0v12.787l-3.054-3.067a1.339 1.339 0 00-1.893 1.893l5.333 5.334z"/></svg>