<?xml version="1.0" encoding="UTF-8" standalone="no"?><!DOCTYPE svg PUBLIC "-//W3C//DTD SVG 1.1//EN" "http://www.w3.org/Graphics/SVG/1.1/DTD/svg11.dtd"><svg width="100%" height="100%" viewBox="0 0 417 417" version="1.1" xmlns="http://www.w3.org/2000/svg" xmlns:xlink="http://www.w3.org/1999/xlink" xml:space="preserve" xmlns:serif="http://www.serif.com/" style="fill-rule:evenodd;clip-rule:evenodd;stroke-linejoin:round;stroke-miterlimit:2;"><rect x="0" y="0" width="416.667" height="416.667" style="fill:#ebebeb;"/><path d="M172.539,265.749l-0.739,-5.384c-26.691,0.811 -40.546,-12.607 -46.227,-35.166c-5.749,12.827 1.401,23.96 18.504,33.764c-14.521,-3.834 -24.109,-12.016 -24.992,-27.574c1.55,-11.502 3.172,-23 4.645,-34.503c0.59,-4.497 -0.221,-8.552 -0.59,-13.048c-2.726,-33.472 2.581,-65.398 19.536,-94.666c13.787,-21.384 29.493,-29.787 47.632,-22.195c20.05,-18.797 41.803,-21.009 66.128,0.888c41.289,29.417 38.338,78.59 35.833,123.637c-0.293,4.87 1.181,7.965 2.361,12.606c6.56,26.029 3.978,46.745 -23.298,57.437l-0.518,0.221c13.715,-12.828 21.604,-23.74 16.22,-30.377c-7.741,21.307 -20.419,30.598 -40.474,32.81l-0.144,1.622l5.38,0.072c13.489,-0.072 20.788,6.785 22.262,20.351c74.981,13.049 95.991,53.08 94.815,130.423l-321.084,-0c-1.104,-77.343 19.838,-117.374 94.887,-130.423c1.401,-13.566 8.705,-20.423 22.194,-20.351l7.669,-0.144Z" style="fill:#333;"/></svg>